<svg xmlns="http://www.w3.org/2000/svg" width="46" height="46" viewBox="0 0 48 48">
  <g>
    <path fill="#4285F4" d="M24 9.5c3.54 0 6.7 1.22 9.19 3.23l6.85-6.85C36.64 2.09 30.74 0 24 0 14.82 0 6.71 5.06 2.69 12.44l7.98 6.2C12.13 13.13 17.62 9.5 24 9.5z"/>
    <path fill="#34A853" d="M46.15 24.55c0-1.64-.15-3.22-.42-4.74H24v9.01h12.44c-.54 2.9-2.18 5.36-4.65 7.02l7.19 5.59C43.93 37.13 46.15 31.36 46.15 24.55z"/>
    <path fill="#FBBC05" d="M9.67 28.64A14.5 14.5 0 0 1 9.5 24c0-1.6.28-3.15.77-4.64l-7.98-6.2A23.93 23.93 0 0 0 0 24c0 3.77.9 7.34 2.49 10.48l8.18-5.84z"/>
    <path fill="#EA4335" d="M24 48c6.48 0 11.92-2.14 15.89-5.82l-7.19-5.59c-2 1.36-4.56 2.17-8.7 2.17-6.38 0-11.87-3.63-13.33-8.57l-8.18 5.84C6.71 42.94 14.82 48 24 48z"/>
    <path fill="none" d="M0 0h48v48H0z"/>
  </g>
</svg>
