<?xml version="1.0" encoding="utf-8"?>
<!DOCTYPE svg PUBLIC "-//W3C//DTD SVG 20010904//EN" "http://www.w3.org/TR/2001/REC-SVG-20010904/DTD/svg10.dtd">
<svg height="192.000000pt" preserveAspectRatio="xMidYMid meet" version="1.0" viewBox="0 0 204.000000 192.000000" width="204.000000pt" xmlns="http://www.w3.org/2000/svg">
<g fill="#000000" stroke="none" transform="translate(0.000000,192.000000) scale(0.100000,-0.100000)">
<path d="M942 1589 c-146 -18 -257 -74 -368 -184 -129 -128 -184 -264 -184 -453 0 -206 90 -383 258 -507 256 -189 611 -155 834 78 185 194 224 489 98 737 -115 225 -380 361 -638 329z m108 -374 l0 -235 -30 0 -30 0 0 235 0 235 30 0 30 0 0 -235z m-130 102 c0 -28 -5 -35 -34 -45 -92 -33 -171 -128 -202 -240 -42 -154 39 -323 192 -398 51 -25 70 -29 144 -29 71 0 94 4 141 26 77 36 134 91 172 163 29 56 32 69 32 156 0 85 -3 101 -29 153 -35 68 -108 140 -171 168 -39 17 -45 24 -45 51 0 28 2 30 28 23 86 -20 200 -122 249 -223 26 -52 28 -66 28 -172 0 -106 -2 -119 -29 -173 -64 -132 -197 -223 -339 -234 -130 -10 -223 23 -317 113 -169 161 -172 418 -7 586 48 48 143 107 175 108 7 0 12 -13 12 -33z" fill="red"/>
</g>
</svg>